<svg width="430" height="192" viewBox="0 0 430 192" fill="none" xmlns="http://www.w3.org/2000/svg">
<path d="M334 0C387.019 0 430 42.9807 430 96C430 149.019 387.019 192 334 192H96C42.9807 192 0 149.019 0 96C0 42.9807 42.9807 0 96 0H334ZM67.3008 61.1006V132.001H99.9004C113.2 132.001 123.801 125.401 123.801 111.801C123.801 102.201 117.4 96.7014 111.9 95.4014C117.8 93.8014 122.4 87.9008 122.4 80.3008C122.4 67.701 112.4 61.1006 99.1006 61.1006H67.3008ZM155.074 61.1006V132.001H205.074V117.501H171.274V102.901H200.774V89.1016H171.274V75.6016H205.074V61.1006H155.074ZM230.787 61.1006V75.7012H251.787V132.001H268.188V75.7012H289.087V61.1006H230.787ZM327.093 61.1006L302.293 132.001H318.793L323.393 117.701H350.193L354.793 132.001H372.093L347.193 61.1006H327.093ZM98.1006 101.602C103.7 101.602 107.4 104.401 107.4 110.301C107.4 114.801 103.901 118.201 98.501 118.201H83.4004V101.602H98.1006ZM345.893 104.102H327.693L336.793 75.6016L345.893 104.102ZM98.1006 74.4014C103.3 74.4014 106.1 77.9009 106.101 81.8008C106.101 85.9008 103.101 89.3008 98.1006 89.3008H83.4004V74.4014H98.1006Z" fill="white" style="fill:white;fill-opacity:1;"/>
</svg>
